<?xml version="1.0" encoding="utf-8"?>
<!-- Generator: Adobe Illustrator 24.1.2, SVG Export Plug-In . SVG Version: 6.00 Build 0)  -->
<svg version="1.1" id="Camada_1" xmlns="http://www.w3.org/2000/svg" xmlns:xlink="http://www.w3.org/1999/xlink" x="0px" y="0px"
	 viewBox="0 0 50 39" style="enable-background:new 0 0 50 39;" xml:space="preserve">
<style type="text/css">
	.st0{opacity:0.43;fill:#C9B0AC;}
	.st1{fill-rule:evenodd;clip-rule:evenodd;}
	.st2{fill:none;}
	.st3{opacity:0.45;fill:#B2A1A1;enable-background:new    ;}
	.st4{font-family:'PalatinoLinotype-Roman';}
	.st5{font-size:34.319px;}
	.st6{opacity:0.45;fill:#FFFFFF;enable-background:new    ;}
</style>
<ellipse class="st0" cx="25" cy="19.5" rx="25" ry="19.5"/>
<desc>Created with Sketch.</desc>
<g>
	<g>
		<rect x="46.8" y="1.9" class="st1" width="1.5" height="35.1"/>
		<polygon class="st1" points="24.1,26.6 25.3,27.3 47.9,2.5 46.7,1.9 		"/>
		<line class="st2" x1="5.2" y1="37.1" x2="49.3" y2="37.1"/>
		<rect x="1.7" y="2" class="st1" width="1.5" height="35.1"/>
		<polygon class="st1" points="25.9,26.6 24.7,27.3 2.1,2.6 3.3,1.9 		"/>
		<rect x="6" y="36" class="st1" width="42.2" height="1.1"/>
	</g>
	<g>
		<g>
			<path d="M7.5,35.1c0.1,0.1,0.2,0.2,0.5,0.2s0.4-0.1,0.4-0.2C8.5,35,8.4,35,8,34.9c-0.4-0.1-0.5-0.1-0.5-0.3
				c0-0.1,0.2-0.2,0.5-0.2c0.4,0,0.6,0.1,0.6,0.2H8.5c0-0.1-0.2-0.2-0.4-0.2c-0.3,0-0.4,0.1-0.4,0.2c0,0.1,0.1,0.1,0.4,0.2
				c0.5,0.1,0.6,0.2,0.6,0.3s-0.2,0.3-0.6,0.3S7.5,35.3,7.5,35.1L7.5,35.1z"/>
			<path d="M10.3,35.1c-0.1,0.2-0.3,0.3-0.7,0.3c-0.5,0-0.8-0.2-0.8-0.5s0.3-0.5,0.8-0.5c0.4,0,0.6,0.1,0.7,0.3h-0.1
				c-0.1-0.1-0.2-0.2-0.5-0.2c-0.4,0-0.6,0.2-0.6,0.4s0.2,0.4,0.6,0.4c0.3,0,0.4-0.1,0.5-0.2H10.3z"/>
			<path d="M12.2,34.9c0,0.3-0.3,0.5-0.8,0.5s-0.8-0.2-0.8-0.5s0.3-0.5,0.8-0.5S12.2,34.6,12.2,34.9z M10.7,34.9
				c0,0.2,0.2,0.4,0.6,0.4c0.5,0,0.6-0.2,0.6-0.4s-0.2-0.4-0.6-0.4S10.7,34.7,10.7,34.9z"/>
			<path d="M14,34.9c0,0.3-0.3,0.5-0.8,0.5s-0.8-0.2-0.8-0.5s0.3-0.5,0.8-0.5S14,34.6,14,34.9z M12.6,34.9c0,0.2,0.2,0.4,0.6,0.4
				c0.5,0,0.6-0.2,0.6-0.4s-0.2-0.4-0.6-0.4S12.6,34.7,12.6,34.9z"/>
			<path d="M14.8,34.5h-0.6v-0.1h1.3v0.1H14.8l0.1,0.9h-0.1V34.5z"/>
			<path d="M16.8,34.9h-0.9v0.4h1v0.1h-1.1v-1h1.1v0.1H16v0.3L16.8,34.9L16.8,34.9z"/>
			<path d="M17.4,34.9v0.4h-0.1v-1h0.6c0.3,0,0.5,0.1,0.5,0.2c0,0.1-0.1,0.2-0.3,0.2c0.2,0,0.3,0.1,0.3,0.2l0,0c0,0.1,0,0.2,0,0.2
				h-0.1c0,0,0-0.1,0-0.2l0,0c0-0.2-0.1-0.2-0.4-0.2h-0.5V34.9z M17.4,34.9h0.4c0.3,0,0.5-0.1,0.5-0.2c0-0.1-0.1-0.2-0.4-0.2h-0.5
				V34.9z"/>
			<path d="M21,34.9c0-0.2,0-0.4,0-0.5l0,0c-0.1,0.1-0.4,0.6-0.7,0.9h-0.1c-0.2-0.2-0.5-0.8-0.6-0.9l0,0c0,0.1,0,0.3,0,0.5v0.4h-0.1
				v-1h0.2c0.2,0.3,0.5,0.8,0.6,0.9l0,0c0-0.1,0.4-0.5,0.6-0.9h0.2v1H21V34.9z"/>
			<path d="M23.1,34.9c0,0.3-0.3,0.5-0.8,0.5s-0.8-0.2-0.8-0.5s0.3-0.5,0.8-0.5C22.8,34.4,23.1,34.6,23.1,34.9z M21.7,34.9
				c0,0.2,0.2,0.4,0.6,0.4c0.5,0,0.6-0.2,0.6-0.4s-0.2-0.4-0.6-0.4C21.9,34.5,21.7,34.7,21.7,34.9z"/>
			<path d="M23.5,34.4h0.6c0.3,0,0.5,0.1,0.5,0.2c0,0.1-0.1,0.2-0.3,0.2c0.1,0,0.3,0.1,0.3,0.2c0,0.2-0.3,0.3-0.6,0.3h-0.6v-0.9
				H23.5z M24.1,34.8c0.3,0,0.4-0.1,0.4-0.2c0-0.1-0.1-0.2-0.4-0.2h-0.5v0.3h0.5V34.8z M23.6,35.3h0.5c0.2,0,0.4-0.1,0.4-0.2
				c0-0.1-0.1-0.2-0.5-0.2h-0.4V35.3z"/>
			<path d="M25.2,34.4v1h-0.1v-1H25.2z"/>
			<path d="M25.7,34.4h0.1v0.9h0.9v0.1h-1.1v-1H25.7z"/>
			<path d="M27.2,34.4v1h-0.1v-1H27.2z"/>
			<path d="M28.1,34.5h-0.6v-0.1h1.3v0.1H28.1l0.1,0.9h-0.1V34.5z"/>
			<path d="M29.5,35.4V35l0,0l-0.6-0.6H29c0.2,0.2,0.5,0.4,0.6,0.5c0.1-0.1,0.4-0.3,0.6-0.5h0.2L29.6,35l0,0v0.4H29.5z"/>
			<path d="M31.2,35.1c0.1,0.1,0.2,0.2,0.5,0.2s0.4-0.1,0.4-0.2c0-0.1-0.1-0.2-0.5-0.2c-0.4-0.1-0.5-0.1-0.5-0.3
				c0-0.1,0.2-0.2,0.5-0.2c0.4,0,0.6,0.1,0.6,0.2h-0.1c0-0.1-0.2-0.2-0.4-0.2c-0.3,0-0.4,0.1-0.4,0.2c0,0.1,0.1,0.1,0.4,0.2
				c0.5,0.1,0.6,0.2,0.6,0.3s-0.2,0.3-0.6,0.3S31.1,35.3,31.2,35.1L31.2,35.1z"/>
			<path d="M32.6,34.4L32.6,34.4l0.1,0.4h1.1v-0.4H34v1h-0.1v-0.5h-1.1v0.5h-0.1v-1H32.6z"/>
			<path d="M34.6,35l-0.2,0.3h-0.1l0.6-1h0.2l0.7,1h-0.1L35.4,35H34.6z M35.3,35c-0.2-0.3-0.3-0.4-0.3-0.5l0,0
				c0,0.1-0.2,0.2-0.3,0.5H35.3z"/>
			<path d="M36.2,34.9v0.4h-0.1v-1h0.6c0.3,0,0.5,0.1,0.5,0.2c0,0.1-0.1,0.2-0.3,0.2c0.2,0,0.3,0.1,0.3,0.2l0,0c0,0.1,0,0.2,0,0.2
				h-0.1c0,0,0-0.1,0-0.2l0,0c0-0.2-0.1-0.2-0.4-0.2h-0.5V34.9z M36.2,34.9h0.4c0.3,0,0.5-0.1,0.5-0.2c0-0.1-0.1-0.2-0.4-0.2h-0.5
				V34.9z"/>
			<path d="M38.7,34.9h-0.9v0.4h1v0.1h-1.1v-1h1.1v0.1h-0.9v0.3L38.7,34.9L38.7,34.9z"/>
			<path d="M39.3,35l-0.2,0.3H39l0.6-1h0.2l0.7,1h-0.1L40,35H39.3z M40,35c-0.2-0.3-0.3-0.4-0.3-0.5l0,0c0,0.1-0.2,0.2-0.3,0.5H40z"
				/>
			<path d="M40.7,34.4h0.6c0.3,0,0.5,0.1,0.5,0.2c0,0.1-0.1,0.2-0.3,0.2c0.1,0,0.3,0.1,0.3,0.2c0,0.2-0.3,0.3-0.6,0.3h-0.6
				L40.7,34.4L40.7,34.4z M41.3,34.8c0.3,0,0.4-0.1,0.4-0.2c0-0.1-0.1-0.2-0.4-0.2h-0.5v0.3h0.5V34.8z M40.9,35.3h0.5
				c0.2,0,0.4-0.1,0.4-0.2c0-0.1-0.1-0.2-0.5-0.2h-0.4V35.3z"/>
			<path d="M42.3,34.4L42.3,34.4l0.1,0.9h0.9v0.1h-1.1L42.3,34.4L42.3,34.4z"/>
			<path d="M44.7,34.9h-0.9v0.4h1v0.1h-1.1v-1h1.1v0.1h-0.9v0.3L44.7,34.9L44.7,34.9z"/>
		</g>
	</g>
	<text transform="matrix(-1.3878 0 0 1 41.7998 33.2075)" class="st3 st4 st5">S</text>
	<text transform="matrix(1.3878 0 0 1 8.0996 33.207)" class="st6 st4 st5">S</text>
</g>
</svg>
